HIERARCHY
ROOT mixamorig:Hips
{
	OFFSET -0.000008 104.274872 1.554316
	CHANNELS 6 Xposition Yposition Zposition Xrotation Yrotation Zrotation
	JOINT mixamorig:Spine
	{
		OFFSET -0.000005 10.181595 0.131519
		CHANNELS 6 Xposition Yposition Zposition Xrotation Yrotation Zrotation
		JOINT mixamorig:Spine1
		{
			OFFSET -0.000000 9.893959 -1.470707
			CHANNELS 6 Xposition Yposition Zposition Xrotation Yrotation Zrotation
			JOINT mixamorig:Spine2
			{
				OFFSET -0.000000 9.220757 -1.370641
				CHANNELS 6 Xposition Yposition Zposition Xrotation Yrotation Zrotation
				JOINT mixamorig:Neck
				{
					OFFSET 0.000001 16.740417 -2.049036
					CHANNELS 6 Xposition Yposition Zposition Xrotation Yrotation Zrotation
					JOINT mixamorig:Head
					{
						OFFSET 0.000000 9.617874 1.685006
						CHANNELS 6 Xposition Yposition Zposition Xrotation Yrotation Zrotation
						JOINT mixamorig:HeadTop_End
						{
							OFFSET 0.000002 22.037354 7.501101
							CHANNELS 6 Xposition Yposition Zposition Xrotation Yrotation Zrotation
							End Site
							{
								OFFSET 0.000168 2310.654297 -282.823242
							}
						}
					}
				}
				JOINT mixamorig:RightShoulder
				{
					OFFSET -4.569970 11.014908 -2.160885
					CHANNELS 6 Xposition Yposition Zposition Xrotation Yrotation Zrotation
					JOINT mixamorig:RightArm
					{
						OFFSET -10.592851 -0.524811 -2.232101
						CHANNELS 6 Xposition Yposition Zposition Xrotation Yrotation Zrotation
						JOINT mixamorig:RightForeArm
						{
							OFFSET -27.841511 0.000031 -0.000004
							CHANNELS 6 Xposition Yposition Zposition Xrotation Yrotation Zrotation
							JOINT mixamorig:RightHand
							{
								OFFSET -28.328831 -0.000015 0.000015
								CHANNELS 6 Xposition Yposition Zposition Xrotation Yrotation Zrotation
								JOINT mixamorig:RightHandThumb1
								{
									OFFSET -2.464806 -1.573990 2.681852
									CHANNELS 6 Xposition Yposition Zposition Xrotation Yrotation Zrotation
									JOINT mixamorig:RightHandThumb2
									{
										OFFSET -3.215179 -1.872803 1.924282
										CHANNELS 6 Xposition Yposition Zposition Xrotation Yrotation Zrotation
										JOINT mixamorig:RightHandThumb3
										{
											OFFSET -2.654831 -1.527969 1.512609
											CHANNELS 6 Xposition Yposition Zposition Xrotation Yrotation Zrotation
											JOINT mixamorig:RightHandThumb4
											{
												OFFSET -2.018814 -1.152008 1.108052
												CHANNELS 6 Xposition Yposition Zposition Xrotation Yrotation Zrotation
												End Site
												{
													OFFSET -188.809540 -114.533607 132.431396
												}
											}
										}
									}
								}
								JOINT mixamorig:RightHandIndex1
								{
									OFFSET -9.108284 -0.517868 2.259835
									CHANNELS 6 Xposition Yposition Zposition Xrotation Yrotation Zrotation
									JOINT mixamorig:RightHandIndex2
									{
										OFFSET -3.699989 0.000000 0.001215
										CHANNELS 6 Xposition Yposition Zposition Xrotation Yrotation Zrotation
										JOINT mixamorig:RightHandIndex3
										{
											OFFSET -2.850006 0.000031 -0.000522
											CHANNELS 6 Xposition Yposition Zposition Xrotation Yrotation Zrotation
											JOINT mixamorig:RightHandIndex4
											{
												OFFSET -2.772186 -0.000015 -0.000020
												CHANNELS 6 Xposition Yposition Zposition Xrotation Yrotation Zrotation
												End Site
												{
													OFFSET -277.218445 0.000000 -0.050231
												}
											}
										}
									}
								}
								JOINT mixamorig:RightHandMiddle1
								{
									OFFSET -9.532516 -0.000031 -0.000023
									CHANNELS 6 Xposition Yposition Zposition Xrotation Yrotation Zrotation
									JOINT mixamorig:RightHandMiddle2
									{
										OFFSET -3.700005 -0.000015 0.003713
										CHANNELS 6 Xposition Yposition Zposition Xrotation Yrotation Zrotation
										JOINT mixamorig:RightHandMiddle3
										{
											OFFSET -2.949974 0.000015 -0.002054
											CHANNELS 6 Xposition Yposition Zposition Xrotation Yrotation Zrotation
											JOINT mixamorig:RightHandMiddle4
											{
												OFFSET -2.946640 0.000000 -0.000156
												CHANNELS 6 Xposition Yposition Zposition Xrotation Yrotation Zrotation
												End Site
												{
													OFFSET -294.664337 0.000000 -0.113670
												}
											}
										}
									}
								}
								JOINT mixamorig:RightHandRing1
								{
									OFFSET -9.103600 -0.043076 -1.865134
									CHANNELS 6 Xposition Yposition Zposition Xrotation Yrotation Zrotation
									JOINT mixamorig:RightHandRing2
									{
										OFFSET -3.379288 0.000000 -0.001055
										CHANNELS 6 Xposition Yposition Zposition Xrotation Yrotation Zrotation
										JOINT mixamorig:RightHandRing3
										{
											OFFSET -2.889687 -0.000015 0.000379
											CHANNELS 6 Xposition Yposition Zposition Xrotation Yrotation Zrotation
											JOINT mixamorig:RightHandRing4
											{
												OFFSET -2.638809 -0.000015 0.000941
												CHANNELS 6 Xposition Yposition Zposition Xrotation Yrotation Zrotation
												End Site
												{
													OFFSET -263.880371 0.000000 0.516020
												}
											}
										}
									}
								}
								JOINT mixamorig:RightHandPinky1
								{
									OFFSET -8.076683 -0.486710 -3.806280
									CHANNELS 6 Xposition Yposition Zposition Xrotation Yrotation Zrotation
									JOINT mixamorig:RightHandPinky2
									{
										OFFSET -3.600014 -0.000015 -0.003747
										CHANNELS 6 Xposition Yposition Zposition Xrotation Yrotation Zrotation
										JOINT mixamorig:RightHandPinky3
										{
											OFFSET -2.099983 0.000000 -0.005739
											CHANNELS 6 Xposition Yposition Zposition Xrotation Yrotation Zrotation
											JOINT mixamorig:RightHandPinky4
											{
												OFFSET -2.115768 -0.000031 -0.003680
												CHANNELS 6 Xposition Yposition Zposition Xrotation Yrotation Zrotation
												End Site
												{
													OFFSET -211.577087 0.000000 -0.350686
												}
											}
										}
									}
								}
							}
						}
					}
				}
				JOINT mixamorig:LeftShoulder
				{
					OFFSET 4.570447 11.014725 -2.160855
					CHANNELS 6 Xposition Yposition Zposition Xrotation Yrotation Zrotation
					JOINT mixamorig:LeftArm
					{
						OFFSET 10.592371 -0.524597 -2.232119
						CHANNELS 6 Xposition Yposition Zposition Xrotation Yrotation Zrotation
						JOINT mixamorig:LeftForeArm
						{
							OFFSET 27.841532 -0.000031 0.000026
							CHANNELS 6 Xposition Yposition Zposition Xrotation Yrotation Zrotation
							JOINT mixamorig:LeftHand
							{
								OFFSET 28.328846 -0.000061 0.000022
								CHANNELS 6 Xposition Yposition Zposition Xrotation Yrotation Zrotation
								JOINT mixamorig:LeftHandThumb1
								{
									OFFSET 2.466141 -1.576172 2.681732
									CHANNELS 6 Xposition Yposition Zposition Xrotation Yrotation Zrotation
									JOINT mixamorig:LeftHandThumb2
									{
										OFFSET 3.217812 -1.872070 1.916482
										CHANNELS 6 Xposition Yposition Zposition Xrotation Yrotation Zrotation
										JOINT mixamorig:LeftHandThumb3
										{
											OFFSET 2.656029 -1.528778 1.514513
											CHANNELS 6 Xposition Yposition Zposition Xrotation Yrotation Zrotation
											JOINT mixamorig:LeftHandThumb4
											{
												OFFSET 2.020889 -1.154053 1.115139
												CHANNELS 6 Xposition Yposition Zposition Xrotation Yrotation Zrotation
												End Site
												{
													OFFSET 190.885437 -115.081749 130.048782
												}
											}
										}
									}
								}
								JOINT mixamorig:LeftHandIndex1
								{
									OFFSET 9.109314 -0.518021 2.259871
									CHANNELS 6 Xposition Yposition Zposition Xrotation Yrotation Zrotation
									JOINT mixamorig:LeftHandIndex2
									{
										OFFSET 3.699989 0.000000 -0.000322
										CHANNELS 6 Xposition Yposition Zposition Xrotation Yrotation Zrotation
										JOINT mixamorig:LeftHandIndex3
										{
											OFFSET 2.850006 0.000000 0.000352
											CHANNELS 6 Xposition Yposition Zposition Xrotation Yrotation Zrotation
											JOINT mixamorig:LeftHandIndex4
											{
												OFFSET 2.774864 -0.000031 -0.000027
												CHANNELS 6 Xposition Yposition Zposition Xrotation Yrotation Zrotation
												End Site
												{
													OFFSET 277.486267 0.000000 -0.009857
												}
											}
										}
									}
								}
								JOINT mixamorig:LeftHandMiddle1
								{
									OFFSET 9.533394 0.000061 0.000044
									CHANNELS 6 Xposition Yposition Zposition Xrotation Yrotation Zrotation
									JOINT mixamorig:LeftHandMiddle2
									{
										OFFSET 3.699989 -0.000015 -0.000231
										CHANNELS 6 Xposition Yposition Zposition Xrotation Yrotation Zrotation
										JOINT mixamorig:LeftHandMiddle3
										{
											OFFSET 2.949997 -0.000015 -0.000059
											CHANNELS 6 Xposition Yposition Zposition Xrotation Yrotation Zrotation
											JOINT mixamorig:LeftHandMiddle4
											{
												OFFSET 2.952896 0.000031 0.000063
												CHANNELS 6 Xposition Yposition Zposition Xrotation Yrotation Zrotation
												End Site
												{
													OFFSET 295.289337 0.000000 0.022810
												}
											}
										}
									}
								}
								JOINT mixamorig:LeftHandRing1
								{
									OFFSET 9.104523 -0.042999 -1.865074
									CHANNELS 6 Xposition Yposition Zposition Xrotation Yrotation Zrotation
									JOINT mixamorig:LeftHandRing2
									{
										OFFSET 3.150009 -0.000031 0.000043
										CHANNELS 6 Xposition Yposition Zposition Xrotation Yrotation Zrotation
										JOINT mixamorig:LeftHandRing3
										{
											OFFSET 2.949982 -0.000015 0.000040
											CHANNELS 6 Xposition Yposition Zposition Xrotation Yrotation Zrotation
											JOINT mixamorig:LeftHandRing4
											{
												OFFSET 2.644348 0.000000 0.000057
												CHANNELS 6 Xposition Yposition Zposition Xrotation Yrotation Zrotation
												End Site
												{
													OFFSET 264.434631 0.000000 0.012105
												}
											}
										}
									}
								}
								JOINT mixamorig:LeftHandPinky1
								{
									OFFSET 8.077789 -0.486847 -3.806259
									CHANNELS 6 Xposition Yposition Zposition Xrotation Yrotation Zrotation
									JOINT mixamorig:LeftHandPinky2
									{
										OFFSET 3.599953 0.000031 0.014727
										CHANNELS 6 Xposition Yposition Zposition Xrotation Yrotation Zrotation
										JOINT mixamorig:LeftHandPinky3
										{
											OFFSET 2.100021 0.000015 0.007705
											CHANNELS 6 Xposition Yposition Zposition Xrotation Yrotation Zrotation
											JOINT mixamorig:LeftHandPinky4
											{
												OFFSET 2.125504 0.000031 0.007517
												CHANNELS 6 Xposition Yposition Zposition Xrotation Yrotation Zrotation
												End Site
												{
													OFFSET 212.550781 0.000000 0.625752
												}
											}
										}
									}
								}
							}
						}
					}
				}
			}
		}
	}
	JOINT mixamorig:RightUpLeg
	{
		OFFSET -8.207787 -6.751648 -1.599560
		CHANNELS 6 Xposition Yposition Zposition Xrotation Yrotation Zrotation
		JOINT mixamorig:RightLeg
		{
			OFFSET -0.000002 -44.370117 0.345942
			CHANNELS 6 Xposition Yposition Zposition Xrotation Yrotation Zrotation
			JOINT mixamorig:RightFoot
			{
				OFFSET 0.000003 -44.423679 -3.043532
				CHANNELS 6 Xposition Yposition Zposition Xrotation Yrotation Zrotation
				JOINT mixamorig:RightToeBase
				{
					OFFSET -0.000002 -8.728671 10.710558
					CHANNELS 6 Xposition Yposition Zposition Xrotation Yrotation Zrotation
					JOINT mixamorig:RightToe_End
					{
						OFFSET -0.000001 -0.000679 9.278119
						CHANNELS 6 Xposition Yposition Zposition Xrotation Yrotation Zrotation
						End Site
						{
							OFFSET 0.000000 -0.067690 927.812134
						}
					}
				}
			}
		}
	}
	JOINT mixamorig:LeftUpLeg
	{
		OFFSET 8.207793 -6.751686 -1.599556
		CHANNELS 6 Xposition Yposition Zposition Xrotation Yrotation Zrotation
		JOINT mixamorig:LeftLeg
		{
			OFFSET -0.000004 -44.370014 0.346954
			CHANNELS 6 Xposition Yposition Zposition Xrotation Yrotation Zrotation
			JOINT mixamorig:LeftFoot
			{
				OFFSET -0.000001 -44.423672 -3.044401
				CHANNELS 6 Xposition Yposition Zposition Xrotation Yrotation Zrotation
				JOINT mixamorig:LeftToeBase
				{
					OFFSET -0.000002 -8.728669 10.710558
					CHANNELS 6 Xposition Yposition Zposition Xrotation Yrotation Zrotation
					JOINT mixamorig:LeftToe_End
					{
						OFFSET -0.000003 -0.000679 9.278133
						CHANNELS 6 Xposition Yposition Zposition Xrotation Yrotation Zrotation
						End Site
						{
							OFFSET 0.000000 -0.068021 927.813477
						}
					}
				}
			}
		}
	}
}
MOTION
Frames: 3
Frame Time: 0.033333
0.000006 104.270477 1.554256 0.000010 0.000003 -0.000113 -0.000005 10.181587 0.131522 0.000001 -0.000003 0.000084 -0.000000 9.893967 -1.470711 0.000001 0.000000 -0.000000 -0.000000 9.220802 -1.370642 0.000000 -0.000000 -0.000000 0.000001 16.740433 -2.049030 0.000000 -0.000000 -0.000000 0.000000 9.617859 1.685014 0.000000 0.000000 0.000000 0.000002 22.037384 7.501101 0.000000 -0.000000 0.000000 -4.569968 11.014880 -2.160881 0.000008 0.000001 -0.000038 -10.592869 -0.524786 -2.231873 78.111717 34.267134 -28.087551 -27.841526 0.000019 0.000549 -54.366390 106.193131 68.737296 -28.328821 0.000008 0.000024 -0.000321 -0.000043 0.000007 -2.464410 -1.573796 2.682337 -46.947018 -165.117187 -7.317420 -3.215265 -1.872536 1.924628 152.511758 33.117863 15.809132 -2.654959 -1.527876 1.513085 149.051175 26.498591 -37.263087 -2.018826 -1.152000 1.108065 -0.000001 -0.000001 0.000002 -9.108390 -0.517570 2.260127 99.699609 18.644922 -22.080245 -3.700067 0.000279 0.001538 95.108875 18.406277 -20.064652 -2.850079 0.000352 -0.000259 95.282765 15.074484 -16.512331 -2.772161 -0.000016 -0.000020 -0.000002 0.000001 -0.000001 -9.532589 0.000269 0.000263 96.694968 17.442128 -19.731136 -3.700081 0.000316 0.003998 96.768331 15.746624 -17.586019 -2.950084 0.000338 -0.001782 98.434603 13.465958 -15.577037 -2.946625 0.000014 -0.000154 0.000001 -0.000001 0.000000 -9.103698 -0.042763 -1.864843 97.284782 18.733445 -21.174964 -3.379348 0.000309 -0.000781 96.095543 9.695044 -10.798691 -2.889755 0.000349 0.000652 100.085419 6.395629 -7.684167 -2.638812 -0.000002 0.000940 -0.000000 0.000001 0.000001 -8.076756 -0.486391 -3.806000 90.647320 19.283772 -19.343598 -3.600026 0.000291 -0.003513 93.292120 6.668747 -6.695409 -2.100013 0.000329 -0.005479 95.180708 2.939147 -2.986916 -2.115752 -0.000054 -0.003676 0.000000 -0.000000 -0.000001 4.570446 11.014691 -2.160851 -0.000018 0.000010 -0.000021 10.592409 -0.524468 -2.232357 75.051287 -15.209677 11.709880 27.841824 0.000092 -0.000203 98.887089 -69.466582 78.023662 28.328840 -0.000028 0.000020 0.000021 -0.000090 -0.000000 2.466021 -1.576173 2.681903 -34.977238 158.100684 -18.694721 3.217821 -1.871775 1.916360 155.815903 -29.372822 10.016123 2.656096 -1.528621 1.514447 138.928916 -28.229174 42.106436 2.020876 -1.154047 1.115144 0.000004 0.000003 0.000002 9.109367 -0.517889 2.259720 81.897595 -15.499904 13.459057 3.700051 0.000136 -0.000471 76.141603 -15.704651 12.344686 2.850055 0.000169 0.000199 74.004908 -13.390417 10.110158 2.774867 -0.000044 -0.000025 0.000000 0.000004 0.000002 9.533450 0.000202 -0.000111 81.420964 -13.551691 11.667246 3.700074 0.000161 -0.000376 82.706542 -14.240733 12.546369 2.950081 0.000149 -0.000202 82.583312 -17.424391 15.332866 2.952879 -0.000032 0.000065 -0.000000 0.000000 0.000001 9.104580 -0.042873 -1.865223 80.993476 -13.310845 11.382694 3.150063 0.000181 -0.000078 84.906307 -13.566530 12.422187 2.950045 0.000168 -0.000058 86.787696 -15.176954 14.359667 2.644318 0.000031 0.000057 0.000001 0.000001 -0.000000 8.077827 -0.486746 -3.806391 70.579521 -15.479613 11.408756 3.599991 0.000169 0.014571 72.501625 -14.111227 10.753712 2.100055 0.000170 0.007537 76.311327 -13.063705 10.667577 2.125497 -0.000016 0.007519 0.000002 0.000002 -0.000000 -8.207786 -6.751667 -1.599560 -0.077001 -0.000003 0.000080 -0.000002 -44.370110 0.345938 0.153719 -0.000000 -0.000000 0.000000 -44.423679 -3.043532 -0.076700 0.000000 -0.000002 -0.000006 -8.728667 10.710559 -0.000009 -0.000000 -0.000000 -0.000001 -0.000679 9.278123 0.000000 -0.000000 -0.000000 8.207792 -6.751710 -1.599556 -0.074518 -0.000003 0.000081 -0.000002 -44.370014 0.346960 0.148822 0.000002 0.000000 -0.000001 -44.423664 -3.044403 -0.074314 0.000000 -0.000002 -0.000004 -8.728671 10.710558 0.000007 -0.000000 -0.000000 0.000000 -0.000680 9.278137 -0.000000 0.000000 -0.000001 
0.000006 104.270477 1.554256 0.000010 0.000003 -0.000113 -0.000005 10.181587 0.131522 0.000001 -0.000003 0.000084 -0.000000 9.893967 -1.470711 0.000001 0.000000 -0.000000 -0.000000 9.220802 -1.370642 0.000000 -0.000000 -0.000000 0.000001 16.740433 -2.049030 0.000000 -0.000000 -0.000000 0.000000 9.617859 1.685014 0.000000 0.000000 0.000000 0.000002 22.037384 7.501101 0.000000 -0.000000 0.000000 -4.569968 11.014880 -2.160881 0.000008 0.000001 -0.000038 -10.592876 -0.524735 -2.231932 78.230337 22.239496 -18.160279 -27.841520 -0.000003 0.000535 -52.733012 107.167744 67.796014 -28.328817 0.000009 0.000023 -0.000324 -0.000046 0.000009 -2.464429 -1.573740 2.682305 -51.705096 -165.888056 -20.173351 -3.215256 -1.872526 1.924629 148.313692 32.719625 20.185613 -2.654970 -1.527853 1.513070 146.826623 27.655791 -29.594393 -2.018827 -1.152011 1.108071 -0.000004 -0.000005 0.000002 -9.108387 -0.517562 2.260120 98.908441 16.543961 -19.344810 -3.700088 0.000308 0.001527 96.387029 15.550415 -17.334788 -2.850075 0.000360 -0.000251 97.088769 13.290483 -15.025656 -2.772133 -0.000014 -0.000016 0.000000 0.000000 -0.000000 -9.532604 0.000263 0.000251 95.195946 16.464956 -18.161649 -3.700072 0.000298 0.003991 95.136448 14.134690 -15.341245 -2.950068 0.000327 -0.001773 99.513848 13.354233 -15.741868 -2.946623 0.000002 -0.000153 -0.000001 -0.000001 0.000002 -9.103705 -0.042768 -1.864856 94.365914 18.113143 -19.473663 -3.379316 0.000311 -0.000811 94.027854 9.150527 -9.832863 -2.889745 0.000372 0.000664 102.857417 6.730699 -8.491502 -2.638813 -0.000003 0.000941 0.000001 -0.000001 -0.000002 -8.076762 -0.486389 -3.806021 87.551626 19.119491 -18.186111 -3.600043 0.000283 -0.003522 91.019101 7.491169 -7.268465 -2.100002 0.000332 -0.005462 96.687311 3.791253 -4.021391 -2.115782 -0.000049 -0.003675 0.000002 0.000000 -0.000004 4.570446 11.014691 -2.160851 -0.000018 0.000010 -0.000021 10.592382 -0.524486 -2.232339 75.258453 -5.613390 4.328955 27.841827 0.000062 -0.000198 99.656968 -71.069792 80.463187 28.328831 -0.000028 0.000021 0.000020 -0.000089 0.000000 2.466245 -1.576079 2.681833 3.354038 166.655878 -94.040818 3.217862 -1.871823 1.916393 165.207673 -25.167338 27.327971 2.656109 -1.528656 1.514482 140.332452 -27.306272 55.153819 2.020888 -1.154071 1.115151 0.000002 0.000004 0.000001 9.109383 -0.517875 2.259748 84.428795 -18.946286 17.204171 3.700034 0.000156 -0.000477 80.512194 -11.497929 9.759216 2.850040 0.000175 0.000194 78.839972 -9.213810 7.577956 2.774872 -0.000031 -0.000022 0.000000 0.000004 -0.000000 9.533461 0.000205 -0.000083 83.631835 -17.049190 15.266646 3.700057 0.000186 -0.000384 85.583759 -9.287935 8.598570 2.950060 0.000160 -0.000211 85.604830 -10.375512 9.615029 2.952875 -0.000016 0.000065 -0.000001 -0.000003 -0.000001 9.104601 -0.042863 -1.865216 81.920934 -16.939270 14.732655 3.150030 0.000201 -0.000102 86.988429 -10.781324 10.233740 2.950003 0.000188 -0.000088 87.955167 -10.092115 9.741615 2.644316 0.000032 0.000052 0.000002 -0.000001 0.000001 8.077842 -0.486742 -3.806418 74.354867 -18.636707 14.649584 3.600010 0.000152 0.014575 74.566405 -15.618310 12.324544 2.100015 0.000168 0.007550 76.634613 -12.158005 10.005998 2.125489 -0.000000 0.007512 -0.000002 0.000002 0.000003 -8.207786 -6.751667 -1.599560 -0.077001 -0.000003 0.000080 -0.000002 -44.370110 0.345938 0.153719 -0.000000 -0.000000 0.000000 -44.423679 -3.043532 -0.076700 0.000000 -0.000002 -0.000006 -8.728667 10.710559 -0.000009 -0.000000 -0.000000 -0.000001 -0.000679 9.278123 0.000000 -0.000000 -0.000000 8.207792 -6.751710 -1.599556 -0.074518 -0.000003 0.000081 -0.000002 -44.370014 0.346960 0.148822 0.000002 0.000000 -0.000001 -44.423664 -3.044403 -0.074314 0.000000 -0.000002 -0.000004 -8.728671 10.710558 0.000007 -0.000000 -0.000000 0.000000 -0.000680 9.278137 -0.000000 0.000000 -0.000001 
0.000006 104.270477 1.554256 0.000010 0.000003 -0.000113 -0.000005 10.181587 0.131522 0.000001 -0.000003 0.000084 -0.000000 9.893967 -1.470711 0.000001 0.000000 -0.000000 -0.000000 9.220802 -1.370642 0.000000 -0.000000 -0.000000 0.000001 16.740433 -2.049030 0.000000 -0.000000 -0.000000 0.000000 9.617859 1.685014 0.000000 0.000000 0.000000 0.000002 22.037384 7.501101 0.000000 -0.000000 0.000000 -4.569968 11.014880 -2.160881 0.000008 0.000001 -0.000038 -10.592871 -0.524765 -2.231895 77.982332 30.461923 -24.860104 -27.841524 0.000012 0.000556 -51.222102 105.701801 64.642666 -28.328819 0.000020 0.000029 -0.000318 -0.000044 0.000006 -2.464401 -1.573736 2.682306 -50.528770 -164.434400 -16.864266 -3.215270 -1.872524 1.924622 148.943408 32.158873 14.355961 -2.654954 -1.527857 1.513066 144.485166 27.936210 -30.129129 -2.018826 -1.152014 1.108062 -0.000004 0.000002 0.000002 -9.108354 -0.517562 2.260126 99.605584 15.926591 -18.855041 -3.700089 0.000307 0.001516 96.502889 14.685151 -16.404564 -2.850072 0.000354 -0.000261 96.702576 12.486240 -14.023850 -2.772176 -0.000002 -0.000019 -0.000000 -0.000001 -0.000001 -9.532572 0.000272 0.000247 95.445514 15.963218 -17.689683 -3.700075 0.000319 0.003983 95.462590 13.718284 -14.971853 -2.950052 0.000331 -0.001788 99.159382 12.909381 -15.124988 -2.946624 0.000000 -0.000156 0.000001 0.000001 -0.000000 -9.103682 -0.042763 -1.864852 94.691530 17.821949 -19.268259 -3.379331 0.000328 -0.000798 94.973398 9.705720 -10.601126 -2.889766 0.000350 0.000668 102.994465 7.196831 -9.097357 -2.638819 -0.000018 0.000939 0.000000 -0.000003 0.000001 -8.076736 -0.486393 -3.806016 87.369130 19.492404 -18.485762 -3.600037 0.000290 -0.003513 91.207573 8.322542 -8.137307 -2.100018 0.000323 -0.005457 96.395307 4.350980 -4.624599 -2.115762 -0.000041 -0.003679 -0.000002 0.000003 -0.000003 4.570446 11.014691 -2.160851 -0.000018 0.000010 -0.000021 10.592404 -0.524470 -2.232368 74.379674 -13.874967 10.549748 27.841814 0.000072 -0.000211 101.137275 -73.202723 84.175087 28.328817 -0.000028 0.000021 0.000021 -0.000089 -0.000000 2.466259 -1.575966 2.681817 20.814305 178.582959 -124.887673 3.217873 -1.871830 1.916417 168.032913 -20.717470 40.981651 2.656096 -1.528668 1.514484 142.780242 -26.466624 54.853379 2.020887 -1.154074 1.115144 -0.000001 0.000001 0.000004 9.109393 -0.517865 2.259753 87.786079 -22.475661 21.631458 3.700044 0.000174 -0.000473 86.463440 -14.486408 13.643339 2.850042 0.000204 0.000200 87.206947 -10.975931 10.455253 2.774893 -0.000046 -0.000020 0.000000 -0.000000 0.000001 9.533456 0.000205 -0.000086 85.924190 -20.082109 18.718784 3.700046 0.000191 -0.000383 90.340515 -10.874776 10.936554 2.950032 0.000186 -0.000198 91.867356 -10.085789 10.421111 2.952858 -0.000015 0.000061 0.000001 0.000003 -0.000000 9.104604 -0.042868 -1.865205 85.381995 -20.230501 18.692951 3.150067 0.000202 -0.000090 89.793594 -13.333969 13.288288 2.950024 0.000190 -0.000084 90.211376 -10.037669 10.076303 2.644326 0.000017 0.000056 0.000002 0.000001 -0.000000 8.077843 -0.486742 -3.806412 76.339091 -21.301606 17.307720 3.600020 0.000146 0.014576 75.207425 -17.976773 14.309620 2.100028 0.000153 0.007546 76.962162 -13.194010 10.896615 2.125506 0.000001 0.007513 0.000000 -0.000005 -0.000001 -8.207786 -6.751667 -1.599560 -0.077001 -0.000003 0.000080 -0.000002 -44.370110 0.345938 0.153719 -0.000000 -0.000000 0.000000 -44.423679 -3.043532 -0.076700 0.000000 -0.000002 -0.000006 -8.728667 10.710559 -0.000009 -0.000000 -0.000000 -0.000001 -0.000679 9.278123 0.000000 -0.000000 -0.000000 8.207792 -6.751710 -1.599556 -0.074518 -0.000003 0.000081 -0.000002 -44.370014 0.346960 0.148822 0.000002 0.000000 -0.000001 -44.423664 -3.044403 -0.074314 0.000000 -0.000002 -0.000004 -8.728671 10.710558 0.000007 -0.000000 -0.000000 0.000000 -0.000680 9.278137 -0.000000 0.000000 -0.000001 
